<svg class="display-none" xmlns="http://www.w3.org/2000/svg"><defs><symbol viewBox="0 0 512 205" id="ibm-logo"><path d="M0 0v14.011904h99.6600013V0H0zm113.780004 0v14.011904h142.019993S241.29344 0 222.08 0H113.780004zm169.879997 0v14.011904h85.92L364.48 0h-80.819999zm147.52 0L426.08 14.011904h85.139999V0h-80.039998zM0 27.2497715v14.0118999h99.6600013V27.2497715H0zm113.780004.0198477v13.9920522h158.499999S270.4288 30.4775096 267.2 27.2696192H113.780004zm169.879997 0v13.9920522h95.340002l-4.720006-13.9920522h-90.619996zm137.319998 0l-4.72 13.9920522h94.96V27.2696192h-90.24zM28.639998 54.499543v14.031744h43.1599994V54.499543H28.639998zm113.780006 0v14.031744h43.159992V54.499543h-43.159992zm85.139999 0v14.031744H270.72c.000005 0 2.739999-7.4101862 2.739999-14.031744h-45.899996zm84.739998 0v14.031744h76.520003l-5.100001-14.031744h-71.420002zm99.28 0l-5.12 14.031744H483.36V54.499543h-71.779999zM28.639998 81.7691648v14.0118938h43.1599994V81.7691648H28.639998zm113.780006 0v14.0118938h110.24c.000005-.0000052 9.221755-7.1896474 12.159995-14.0118938H142.420004zm169.879997 0v14.0118938h43.159998v-7.7998234l2.739998 7.7998234h79.060004l2.940002-7.7998234v7.7998234H483.36V81.7691648h-81.020001l-4.300002 11.8684314-4.319994-11.8684314h-81.420002zM28.639998 109.018936v14.011894h43.1599994v-14.011894H28.639998zm113.780006 0v14.011894h122.399995c-2.938875-6.800015-12.159995-14.011894-12.159995-14.011894h-110.24zm169.879997 0v14.011894h43.159998v-14.011894h-43.159998zm50.999998 0l5.220004 14.011894h59.28l4.96-14.011894h-69.460004zm76.900004 0v14.011894H483.36v-14.011894h-43.159997zM28.639998 136.268708v14.011894h43.1599994v-14.011894H28.639998zm113.780006 0v14.011894h43.159992v-14.011894h-43.159992zm85.139999 0v14.011894h45.899996c.00001-6.612649-2.739999-14.011894-2.739999-14.011894h-43.159997zm84.739998 0v14.011894h43.159998v-14.011894h-43.159998zm60.799995 0L378.16 150.280602h39.739996l5.100001-14.011894h-49.900001zm67.100007 0v14.011894H483.36v-14.011894h-43.159997zM.77999616 163.518479v14.031744H100.439997v-14.031744H.77999616zm113.00000784 0v14.031744H267.2c3.2288-3.212969 5.080003-14.031744 5.080003-14.031744H113.780004zm170.659993 0v14.031744h71.020002v-14.031744h-71.020002zm98.48 0l5.2 14.031744h20.220002l4.88-14.031744h-30.300002zm57.280006 0v14.031744H512v-14.031744h-71.799997zM.77999616 190.788096V204.8H100.439997v-14.011904H.77999616zm113.00000784 0v13.992059H222.08c19.213435-.00001 33.719997-13.992059 33.719997-13.992059H113.780004zm170.659993 0V204.8h71.020002v-14.011904h-71.020002zm108.340004 0l5.000003 13.972204.859996.019855 5.080003-13.992059h-10.940002zm47.420002 0V204.8H512v-14.011904h-71.799997z"/></symbol><symbol id="icon-apple-logo" viewBox="0 0 32 32"><path d="M26.76 23.448c-.428.987-.908 1.834-1.464 2.623l.031-.046c-.555.84-1.164 1.571-1.843 2.229l-.004.003c-.612.611-1.443 1.003-2.366 1.045h-.008c-.801-.036-1.55-.225-2.229-.539l.037.015c-.694-.31-1.502-.5-2.353-.522h-.008c-.881.018-1.712.208-2.469.538l.042-.016c-.613.284-1.324.48-2.071.549l-.026.002c-.958-.012-1.819-.422-2.425-1.071l-.002-.002c-.714-.686-1.35-1.443-1.9-2.262l-.031-.049c-.824-1.167-1.516-2.51-2.009-3.945l-.034-.112c-.528-1.438-.841-3.097-.858-4.828v-.008c-.002-.071-.003-.156-.003-.24 0-1.611.432-3.122 1.186-4.423l-.023.042c.596-1.021 1.416-1.851 2.398-2.44l.031-.017c.938-.57 2.069-.913 3.28-.927h.004c.929.057 1.794.269 2.59.61l-.05-.019c.583.264 1.26.471 1.967.586l.047.006c.854-.18 1.601-.421 2.312-.728l-.078.03c.822-.344 1.778-.543 2.78-.543.09 0 .18.002.269.005h-.013c2.074.056 3.897 1.083 5.037 2.641l.013.018c-1.787.964-2.981 2.823-2.981 4.96 0 .05.001.1.002.15v-.007.07c0 1.652.711 3.137 1.844 4.167l.005.004c.52.499 1.132.907 1.807 1.196l.04.015q-.222.644-.471 1.236zM21.615 3.2c-.019 1.439-.569 2.746-1.463 3.736l.004-.005c-1.172 1.37-2.59 2.162-4.127 2.037-.02-.152-.031-.327-.031-.505.05-1.461.629-2.779 1.551-3.775l-.004.004c.52-.582 1.146-1.058 1.849-1.4l.035-.016c.626-.33 1.359-.549 2.137-.609l.019-.001c.018.156.028.337.028.52V3.2v-.001z"/></symbol><symbol id="icon-cached" viewBox="0 0 32 32"><path d="M25.333 10.667L20 16h4c0 4.42-3.58 8-8 8-1.353 0-2.62-.34-3.74-.927l-1.947 1.947c1.653 1.033 3.593 1.647 5.687 1.647 5.893 0 10.667-4.773 10.667-10.667h4l-5.333-5.333zM8 16c0-4.42 3.58-8 8-8 1.353 0 2.62.34 3.74.927l1.947-1.947C20.034 5.947 18.094 5.333 16 5.333 10.107 5.333 5.333 10.106 5.333 16h-4l5.333 5.333L11.999 16h-4z"/></symbol><symbol id="icon-check" viewBox="0 0 32 32"><path d="M12 21.56L6.44 16l-1.887 1.887L12 25.334l16-16-1.887-1.887z"/></symbol><symbol id="icon-chevron-left" viewBox="0 0 32 32"><path d="M20.553 9.887L18.666 8l-8 8 8 8 1.887-1.887L14.44 16z"/></symbol><symbol id="icon-chevron-right" viewBox="0 0 32 32"><path d="M13.333 8l-1.887 1.887L17.559 16l-6.113 6.113L13.333 24l8-8z"/></symbol><symbol id="icon-close" viewBox="0 0 32 32"><path d="M25.333 8.553l-1.887-1.887-7.447 7.447-7.447-7.447-1.887 1.887L14.112 16l-7.447 7.447 1.887 1.887 7.447-7.447 7.447 7.447 1.887-1.887L17.886 16z"/></symbol><symbol id="icon-cloud-done" viewBox="0 0 32 32"><path d="M25.807 13.38C24.9 8.793 20.854 5.333 16 5.333c-3.853 0-7.193 2.187-8.867 5.38C3.126 11.146 0 14.54 0 18.666c0 4.42 3.58 8 8 8h17.333c3.68 0 6.667-2.987 6.667-6.667 0-3.52-2.74-6.373-6.193-6.62zm-12.474 9.287L8.666 18l1.887-1.887 2.78 2.78 6.9-6.9 1.887 1.887-8.787 8.787z"/></symbol><symbol id="icon-cloud-download" viewBox="0 0 32 32"><path d="M25.807 13.38C24.9 8.793 20.854 5.333 16 5.333c-3.853 0-7.193 2.187-8.867 5.38C3.126 11.146 0 14.54 0 18.666c0 4.42 3.58 8 8 8h17.333c3.68 0 6.667-2.987 6.667-6.667 0-3.52-2.74-6.373-6.193-6.62zm-3.14 3.953L16 24l-6.667-6.667h4V12h5.333v5.333h4z"/></symbol><symbol id="icon-cloud-upload" viewBox="0 0 32 32"><path d="M25.807 13.38C24.9 8.793 20.854 5.333 16 5.333c-3.853 0-7.193 2.187-8.867 5.38C3.126 11.146 0 14.54 0 18.666c0 4.42 3.58 8 8 8h17.333c3.68 0 6.667-2.987 6.667-6.667 0-3.52-2.74-6.373-6.193-6.62zm-7.14 3.953v5.333h-5.333v-5.333h-4l6.667-6.667 6.667 6.667h-4z"/></symbol><symbol id="icon-code" viewBox="0 0 32 32"><path d="M11.2 22.133L5.133 16l6.133-6.133L9.333 8l-8 8 8 8zm9.6 0L26.933 16 20.8 9.867 22.667 8l8 8-8 8zM15.267 24l4.267-16h-2.8l-4.267 16h2.8z"/></symbol><symbol id="icon-copy" viewBox="0 0 32 32"><path d="M21.333 1.333h-16c-1.467 0-2.667 1.2-2.667 2.667v18.667h2.667V4h16V1.333zm4 5.334H10.666c-1.467 0-2.667 1.2-2.667 2.667v18.667c0 1.467 1.2 2.667 2.667 2.667h14.667c1.467 0 2.667-1.2 2.667-2.667V9.334c0-1.467-1.2-2.667-2.667-2.667zm0 21.333H10.666V9.333h14.667V28z"/></symbol><symbol id="icon-github" viewBox="0 0 32 32"><path d="M15.999.4C7.163.401 0 7.565 0 16.402c0 7.028 4.53 12.997 10.83 15.147l.113.033c.8.147 1.092-.347 1.092-.771 0-.38-.014-1.386-.022-2.721-4.451.967-5.39-2.145-5.39-2.145-.306-.987-.935-1.798-1.76-2.33l-.017-.01c-1.453-.993.11-.973.11-.973 1.052.149 1.935.768 2.442 1.633l.009.016c1.427 2.445 3.745 1.739 4.656 1.329.078-.844.452-1.588 1.015-2.138l.001-.001c-3.553-.404-7.288-1.776-7.288-7.908 0-.027-.001-.059-.001-.09 0-1.625.627-3.103 1.651-4.207l-.004.004c-.209-.571-.329-1.231-.329-1.919 0-.838.179-1.634.501-2.352l-.015.036s1.343-.43 4.4 1.64c1.201-.342 2.58-.539 4.006-.539s2.805.197 4.112.564l-.107-.026c3.055-2.07 4.396-1.64 4.396-1.64.308.682.488 1.479.488 2.318 0 .687-.121 1.346-.342 1.957l.013-.04c1.02 1.098 1.645 2.574 1.645 4.196 0 .034 0 .068-.001.102v-.005c0 6.147-3.741 7.499-7.305 7.895.678.689 1.097 1.635 1.097 2.678 0 .1-.004.199-.011.298l.001-.013c0 2.139-.02 3.865-.02 4.389 0 .428.288.926 1.1.769 6.407-2.187 10.932-8.154 10.932-15.178 0-8.837-7.164-16.002-16.001-16.002z"/></symbol><symbol id="icon-info-outline" viewBox="0 0 32 32"><path d="M14.667 22.667h2.667v-8h-2.667v8zm1.333-20C8.633 2.667 2.667 8.634 2.667 16S8.634 29.333 16 29.333 29.333 23.366 29.333 16 23.366 2.667 16 2.667zm0 24C10.12 26.667 5.333 21.88 5.333 16S10.12 5.333 16 5.333 26.667 10.12 26.667 16 21.88 26.667 16 26.667zM14.667 12h2.667V9.333h-2.667V12z"/></symbol><symbol id="icon-info" viewBox="0 0 32 32"><path d="M16 2.667C8.633 2.667 2.667 8.634 2.667 16S8.634 29.333 16 29.333 29.333 23.366 29.333 16 23.366 2.667 16 2.667zm1.333 20h-2.667v-8h2.667v8zm0-10.667h-2.667V9.333h2.667V12z"/></symbol><symbol id="icon-laptop" viewBox="0 0 32 32"><path d="M26.667 24c1.467 0 2.667-1.2 2.667-2.667V8c0-1.467-1.2-2.667-2.667-2.667H5.334c-1.467 0-2.667 1.2-2.667 2.667v13.333C2.667 22.8 3.867 24 5.334 24H.001v2.667h32V24h-5.333zM5.333 8h21.333v13.333H5.333V8z"/></symbol><symbol id="icon-open-in-new" viewBox="0 0 32 32"><path d="M25.333 25.333H6.666V6.666h9.333V3.999H6.666c-1.473 0-2.667 1.193-2.667 2.667v18.667C3.999 26.806 5.192 28 6.666 28h18.667C26.806 28 28 26.807 28 25.333V16h-2.667v9.333zM18.667 4v2.667h4.78L10.34 19.774l1.887 1.887L25.334 8.554v4.78h2.667V4.001h-9.333z"/></symbol><symbol id="icon-person" viewBox="0 0 32 32"><path d="M16 16c2.947 0 5.333-2.393 5.333-5.333 0-2.947-2.387-5.333-5.333-5.333s-5.333 2.387-5.333 5.333C10.667 13.607 13.054 16 16 16zm0 2.667c-3.553 0-10.667 1.78-10.667 5.333v2.667h21.333V24c0-3.553-7.113-5.333-10.667-5.333z"/></symbol><symbol id="icon-plug" viewBox="0 0 32 32"><path d="M25.8 14.867l-1-1 3-3c.238-.239.386-.568.386-.932 0-.729-.591-1.32-1.32-1.32-.364 0-.694.147-.932.386l-3 3-2.8-2.8 3-3c.239-.239.388-.569.388-.934 0-.729-.591-1.32-1.32-1.32-.365 0-.695.148-.934.388l-3 3-1-1c-.224-.217-.53-.35-.867-.35s-.643.133-.867.35l-3 3c-1.294 1.301-2.094 3.094-2.094 5.075 0 1.322.357 2.561.979 3.626l-.018-.034-6.267 6 2.8 2.8 6.067-6.067c1.028.578 2.256.919 3.564.919 1.982 0 3.781-.782 5.105-2.055l-.002.002 3-3c.285-.211.467-.546.467-.924 0-.316-.128-.602-.334-.809z"/></symbol><symbol id="icon-rocket" viewBox="0 0 32 32"><path d="M15.726 20.046l7.543-7.543L26.001 6l-6.503 2.732-7.543 7.543-4.242.471-3.3 3.3h3.771v.943l-.471.471 2.829 2.829.472-.471h.943v3.771l3.3-3.3zm1.885-5.657c-.241-.241-.391-.575-.391-.943 0-.736.597-1.333 1.333-1.333s1.333.597 1.333 1.333c0 .368-.149.702-.391.943-.241.241-.575.391-.943.391s-.702-.149-.943-.391z"/></symbol><symbol id="icon-sliders" viewBox="0 0 32 32"><path d="M4 22.667v2.667h8v-2.667H4zm0-16v2.667h13.333V6.667H4zM17.333 28v-2.667H28v-2.667H17.333v-2.667h-2.667v8h2.667zm-8-16v2.667H4v2.667h5.333v2.667H12v-8H9.333zM28 17.333v-2.667H14.667v2.667H28zM20 12h2.667V9.333H28V6.666h-5.333V3.999H20v8z"/></symbol><symbol id="icon-smartphone" viewBox="0 0 32 32"><path d="M22.667 1.347L9.334 1.334c-1.473 0-2.667 1.193-2.667 2.667v24c0 1.473 1.193 2.667 2.667 2.667h13.333c1.473 0 2.667-1.193 2.667-2.667v-24c0-1.473-1.193-2.653-2.667-2.653zm0 23.986H9.334V6.666h13.333v18.667z"/></symbol><symbol id="icon-upload" viewBox="0 0 32 32"><path d="M6.667 5.333V8h18.667V5.333H6.667zm0 13.334H12v8h8v-8h5.333L16 9.334l-9.333 9.333z"/></symbol></defs></svg>